<svg viewBox="0 0 720 450" xmlns="http://www.w3.org/2000/svg">
  <defs>
    <marker id="arrow3" markerWidth="10" markerHeight="7" refX="9" refY="3.5" orient="auto">
      <polygon points="0 0, 10 3.5, 0 7" fill="#800000"/>
    </marker>
  </defs>

  <!-- Background -->
  <rect width="720" height="450" fill="#fafafa"/>

  <!-- Title -->
  <text x="360" y="35" text-anchor="middle" font-family="Inter, sans-serif" font-size="20" font-weight="bold" fill="#333">The Adverse Selection "Death Spiral"</text>

  <!-- Ellipse center: 360, 228  rx: 220  ry: 155 -->

  <!-- Elliptical arc arrows (rx=220, ry=155, clockwise) -->
  <!-- Arrow 1→2: top-right to right-top -->
  <path d="M 450,73 A 220,155 0 0,1 545,201" stroke="#800000" stroke-width="2.5" fill="none" marker-end="url(#arrow3)"/>
  <!-- Arrow 2→3: right-bottom to bottom-right -->
  <path d="M 545,256 A 220,155 0 0,1 450,383" stroke="#800000" stroke-width="2.5" fill="none" marker-end="url(#arrow3)"/>
  <!-- Arrow 3→4: bottom-left to left-bottom -->
  <path d="M 270,383 A 220,155 0 0,1 175,256" stroke="#800000" stroke-width="2.5" fill="none" marker-end="url(#arrow3)"/>
  <!-- Arrow 4→1: left-top to top-left -->
  <path d="M 175,201 A 220,155 0 0,1 270,73" stroke="#800000" stroke-width="2.5" fill="none" marker-end="url(#arrow3)"/>

  <!-- Step 1: Top (12 o'clock) -->
  <g transform="translate(270, 46)">
    <rect x="0" y="0" width="180" height="55" rx="8" fill="#fff" stroke="#800000" stroke-width="2"/>
    <text x="90" y="22" text-anchor="middle" font-family="Inter, sans-serif" font-size="13" font-weight="bold" fill="#800000">1. High-risk people</text>
    <text x="90" y="42" text-anchor="middle" font-family="Inter, sans-serif" font-size="13" fill="#333">are most likely to buy</text>
  </g>

  <!-- Step 2: Right (3 o'clock) -->
  <g transform="translate(490, 201)">
    <rect x="0" y="0" width="180" height="55" rx="8" fill="#fff" stroke="#800000" stroke-width="2"/>
    <text x="90" y="22" text-anchor="middle" font-family="Inter, sans-serif" font-size="13" font-weight="bold" fill="#800000">2. Insurer loses money</text>
    <text x="90" y="42" text-anchor="middle" font-family="Inter, sans-serif" font-size="13" fill="#333">on risky customers</text>
  </g>

  <!-- Step 3: Bottom (6 o'clock) -->
  <g transform="translate(270, 356)">
    <rect x="0" y="0" width="180" height="55" rx="8" fill="#fff" stroke="#800000" stroke-width="2"/>
    <text x="90" y="22" text-anchor="middle" font-family="Inter, sans-serif" font-size="13" font-weight="bold" fill="#800000">3. Premiums increase</text>
    <text x="90" y="42" text-anchor="middle" font-family="Inter, sans-serif" font-size="13" fill="#333">to cover losses</text>
  </g>

  <!-- Step 4: Left (9 o'clock) -->
  <g transform="translate(45, 201)">
    <rect x="0" y="0" width="190" height="55" rx="8" fill="#fff" stroke="#800000" stroke-width="2"/>
    <text x="95" y="22" text-anchor="middle" font-family="Inter, sans-serif" font-size="13" font-weight="bold" fill="#800000">4. Healthy people drop</text>
    <text x="95" y="42" text-anchor="middle" font-family="Inter, sans-serif" font-size="13" fill="#333">coverage (too expensive)</text>
  </g>

  <!-- Center: Death spiral result -->
  <g transform="translate(265, 183)">
    <rect x="0" y="0" width="190" height="90" rx="10" fill="#f44336" opacity="0.15" stroke="#c62828" stroke-width="2"/>
    <text x="95" y="25" text-anchor="middle" font-family="Inter, sans-serif" font-size="14" font-weight="bold" fill="#c62828">RESULT:</text>
    <text x="95" y="43" text-anchor="middle" font-family="Inter, sans-serif" font-size="13" fill="#333">Only very sick insured</text>
    <text x="95" y="60" text-anchor="middle" font-family="Inter, sans-serif" font-size="13" fill="#333">Sky-high premiums</text>
    <text x="95" y="83" text-anchor="middle" font-family="Inter, sans-serif" font-size="12" fill="#c62828" font-style="italic">Market collapse!</text>
  </g>

  <!-- Bottom note -->
  <text x="360" y="440" text-anchor="middle" font-family="Inter, sans-serif" font-size="14" fill="#333" font-style="italic">Private information breaks the pooling mechanism that makes insurance work</text>
</svg>