<svg xmlns="http://www.w3.org/2000/svg" viewBox="0 0 500 380">
  <!-- Background -->
  <rect width="500" height="380" fill="white"/>

  <!-- Axes -->
  <line x1="60" y1="40" x2="60" y2="320" stroke="#333" stroke-width="2"/>
  <line x1="60" y1="320" x2="460" y2="320" stroke="#333" stroke-width="2"/>

  <!-- Arrow heads -->
  <polygon points="60,40 55,50 65,50" fill="#333"/>
  <polygon points="460,320 450,315 450,325" fill="#333"/>

  <!-- Axis labels -->
  <text x="20" y="180" font-family="Inter, sans-serif" font-size="14" fill="#333" transform="rotate(-90, 20, 180)">Houses</text>
  <text x="260" y="360" font-family="Inter, sans-serif" font-size="14" fill="#333" text-anchor="middle">TikToks</text>

  <!-- Construction Worker PPF - concave, high houses, medium TikToks -->
  <path d="M 60 70 Q 220 90 300 320" stroke="#800000" stroke-width="3" fill="none"/>

  <!-- Shaded feasible region for construction workers -->
  <path d="M 60 70 Q 220 90 300 320 L 60 320 Z" fill="#800000" fill-opacity="0.06"/>

  <!-- Content Creator PPF - mirror image: drops quickly then levels out -->
  <path d="M 60 200 Q 100 310 420 320" stroke="#ff8243" stroke-width="3" fill="none"/>

  <!-- Shaded feasible region for content creators -->
  <path d="M 60 200 Q 100 310 420 320 L 60 320 Z" fill="#ff8243" fill-opacity="0.06"/>

  <!-- Optimal point for construction workers - mostly houses, some TikToks -->
  <circle cx="130" cy="95" r="7" fill="#2E7D32"/>

  <!-- Optimal point for content creators - mostly TikToks, some houses -->
  <circle cx="280" cy="315" r="7" fill="#2E7D32"/>

  <!-- Parallel tangent lines (same slope = price ratio) -->
  <!-- CW tangent: slope ~0.5, through (130, 95) -->
  <line x1="70" y1="65" x2="190" y2="125" stroke="#2E7D32" stroke-width="2" stroke-dasharray="6,4"/>

  <!-- CC tangent: same slope ~0.5, through (280, 315) -->
  <line x1="200" y1="275" x2="360" y2="355" stroke="#2E7D32" stroke-width="2" stroke-dasharray="6,4"/>

  <!-- Labels for curves -->
  <text x="180" y="85" font-family="Inter, sans-serif" font-size="12" fill="#800000" font-weight="bold">Construction Workers</text>
  <text x="250" y="295" font-family="Inter, sans-serif" font-size="12" fill="#ff8243" font-weight="bold">Content Creators</text>
</svg>
