<svg xmlns="http://www.w3.org/2000/svg" viewBox="0 0 500 380">
  <!-- Background -->
  <rect width="500" height="380" fill="white"/>

  <!-- Axes -->
  <line x1="60" y1="40" x2="60" y2="320" stroke="#333" stroke-width="2"/>
  <line x1="60" y1="320" x2="460" y2="320" stroke="#333" stroke-width="2"/>

  <!-- Arrow heads -->
  <polygon points="60,40 55,50 65,50" fill="#333"/>
  <polygon points="460,320 450,315 450,325" fill="#333"/>

  <!-- Axis labels -->
  <text x="20" y="180" font-family="Inter, sans-serif" font-size="14" fill="#333" transform="rotate(-90, 20, 180)">Houses</text>
  <text x="260" y="360" font-family="Inter, sans-serif" font-size="14" fill="#333" text-anchor="middle">TikToks</text>

  <!-- Construction Worker PPF - concave, high houses, medium TikToks -->
  <path d="M 60 70 Q 200 110 300 320" stroke="#800000" stroke-width="3" fill="none"/>

  <!-- Shaded feasible region for construction workers -->
  <path d="M 60 70 Q 200 110 300 320 L 60 320 Z" fill="#800000" fill-opacity="0.06"/>

  <!-- Content Creator PPF - concave, medium houses, high TikToks -->
  <path d="M 60 180 Q 110 190 420 320" stroke="#ff8243" stroke-width="3" fill="none"/>

  <!-- Shaded feasible region for content creators -->
  <path d="M 60 180 Q 110 190 420 320 L 60 320 Z" fill="#ff8243" fill-opacity="0.06"/>

  <!-- Optimal point for construction workers - interior, mostly houses -->
  <circle cx="95" cy="88" r="7" fill="#2E7D32"/>

  <!-- Optimal point for content creators - interior, mostly TikToks -->
  <circle cx="200" cy="230" r="7" fill="#2E7D32"/>

  <!-- Parallel tangent lines (same slope = price ratio) -->
  <!-- CW tangent line through (95, 88) with slope ~0.4 -->
  <line x1="55" y1="72" x2="155" y2="112" stroke="#2E7D32" stroke-width="2" stroke-dasharray="6,4"/>

  <!-- CC tangent line through (200, 230) with slope ~0.4 (parallel) -->
  <line x1="140" y1="206" x2="260" y2="254" stroke="#2E7D32" stroke-width="2" stroke-dasharray="6,4"/>

  <!-- Labels for curves -->
  <text x="170" y="100" font-family="Inter, sans-serif" font-size="12" fill="#800000" font-weight="bold">Construction Workers</text>
  <text x="280" y="280" font-family="Inter, sans-serif" font-size="12" fill="#ff8243" font-weight="bold">Content Creators</text>

  <!-- Price ratio label -->
  <text x="165" y="130" font-family="Inter, sans-serif" font-size="10" fill="#2E7D32">Price ratio</text>
  <text x="265" y="270" font-family="Inter, sans-serif" font-size="10" fill="#2E7D32">Price ratio</text>
</svg>
