<svg viewBox="0 0 600 400" xmlns="http://www.w3.org/2000/svg">
  <defs>
    <marker id="arrowhead" markerWidth="10" markerHeight="7" refX="9" refY="3.5" orient="auto">
      <polygon points="0 0, 10 3.5, 0 7" fill="#333"/>
    </marker>
  </defs>

  <!-- Background -->
  <rect width="600" height="400" fill="#fafafa"/>

  <!-- Axes -->
  <line x1="80" y1="320" x2="550" y2="320" stroke="#333" stroke-width="2" marker-end="url(#arrowhead)"/>
  <line x1="80" y1="320" x2="80" y2="40" stroke="#333" stroke-width="2" marker-end="url(#arrowhead)"/>

  <!-- Axis labels -->
  <text x="300" y="365" text-anchor="middle" font-family="Inter, sans-serif" font-size="16" fill="#333">Wealth ($)</text>
  <text x="35" y="180" text-anchor="middle" font-family="Inter, sans-serif" font-size="16" fill="#333" transform="rotate(-90, 35, 180)">Utility</text>

  <!-- Utility curve (more concave) -->
  <path d="M 80 320 Q 100 40, 500 55" stroke="#800000" stroke-width="3" fill="none"/>

  <!-- Chord connecting gamble outcomes -->
  <line x1="160" y1="140" x2="340" y2="63" stroke="#666" stroke-width="2" stroke-dasharray="8,4"/>

  <!-- Low wealth point ($50) -->
  <circle cx="160" cy="140" r="6" fill="#800000"/>
  <line x1="160" y1="147" x2="160" y2="320" stroke="#800000" stroke-width="1" stroke-dasharray="5,5"/>
  <text x="160" y="340" text-anchor="middle" font-family="Inter, sans-serif" font-size="12" fill="#333">$50</text>

  <!-- High wealth point ($150) -->
  <circle cx="340" cy="63" r="6" fill="#800000"/>
  <line x1="340" y1="60" x2="340" y2="320" stroke="#800000" stroke-width="1" stroke-dasharray="5,5"/>
  <text x="340" y="340" text-anchor="middle" font-family="Inter, sans-serif" font-size="12" fill="#333">$150</text>

  <!-- Expected value point ($100) — on the curve -->
  <circle cx="250" cy="87" r="6" fill="#ff8243"/>
  <line x1="250" y1="85" x2="250" y2="320" stroke="#ff8243" stroke-width="1" stroke-dasharray="5,5"/>
  <text x="250" y="340" text-anchor="middle" font-family="Inter, sans-serif" font-size="12" fill="#333">$100</text>

  <!-- Expected utility point (midpoint of chord) -->
  <circle cx="250" cy="100" r="6" fill="#666"/>

  <!-- Horizontal dashed lines to y-axis -->
  <line x1="250" y1="87" x2="80" y2="87" stroke="#ff8243" stroke-width="1" stroke-dasharray="5,5"/>
  <line x1="250" y1="100" x2="80" y2="100" stroke="#666" stroke-width="1" stroke-dasharray="5,5"/>

  <!-- Labels -->
  <text x="320" y="55" font-family="Inter, sans-serif" font-size="13" fill="#800000">U(150)</text>
  <text x="120" y="135" font-family="Inter, sans-serif" font-size="13" fill="#800000">U(50)</text>
  <text x="220" y="75" font-family="Inter, sans-serif" font-size="13" fill="#ff8243">U(100)</text>
  <text x="260" y="120" font-family="Inter, sans-serif" font-size="13" fill="#666">E[U(gamble)]</text>

  <!-- Bracket showing risk premium -->
  <line x1="70" y1="87" x2="70" y2="100" stroke="#333" stroke-width="2"/>
  <line x1="66" y1="100" x2="74" y2="100" stroke="#333" stroke-width="2"/>
  <line x1="66" y1="87" x2="74" y2="87" stroke="#333" stroke-width="2"/>
  <text x="55" y="90" text-anchor="end" font-family="Inter, sans-serif" font-size="11" fill="#333">Risk</text>
  <text x="55" y="102" text-anchor="end" font-family="Inter, sans-serif" font-size="11" fill="#333">premium</text>

  <!-- Title -->
  <text x="300" y="30" text-anchor="middle" font-family="Inter, sans-serif" font-size="18" font-weight="bold" fill="#333">Diminishing Marginal Utility Creates Risk Aversion</text>
</svg>