<svg xmlns="http://www.w3.org/2000/svg" viewBox="0 0 700 450">
  <defs>
    <linearGradient id="topGrad" x1="0%" y1="0%" x2="0%" y2="100%">
      <stop offset="0%" style="stop-color:#800000;stop-opacity:0.3"/>
      <stop offset="100%" style="stop-color:#800000;stop-opacity:0.1"/>
    </linearGradient>
    <linearGradient id="bottomGrad" x1="0%" y1="0%" x2="0%" y2="100%">
      <stop offset="0%" style="stop-color:#ff8243;stop-opacity:0.3"/>
      <stop offset="100%" style="stop-color:#ff8243;stop-opacity:0.1"/>
    </linearGradient>
  </defs>

  <!-- Background -->
  <rect width="700" height="450" fill="#fafafa"/>

  <!-- Title -->
  <text x="350" y="35" text-anchor="middle" font-family="Inter, sans-serif" font-size="18" font-weight="600" fill="#333">
    U.S. Income Inequality: 1960-2020
  </text>

  <!-- Axes -->
  <line x1="80" y1="380" x2="650" y2="380" stroke="#333" stroke-width="1.5"/>
  <line x1="80" y1="380" x2="80" y2="70" stroke="#333" stroke-width="1.5"/>

  <!-- Y-axis labels -->
  <text x="70" y="385" text-anchor="end" font-family="Inter, sans-serif" font-size="12" fill="#666">0%</text>
  <text x="70" y="307" text-anchor="end" font-family="Inter, sans-serif" font-size="12" fill="#666">15%</text>
  <text x="70" y="229" text-anchor="end" font-family="Inter, sans-serif" font-size="12" fill="#666">30%</text>
  <text x="70" y="151" text-anchor="end" font-family="Inter, sans-serif" font-size="12" fill="#666">45%</text>
  <text x="70" y="73" text-anchor="end" font-family="Inter, sans-serif" font-size="12" fill="#666">60%</text>

  <!-- Y-axis title -->
  <text x="25" y="225" text-anchor="middle" font-family="Inter, sans-serif" font-size="13" fill="#333" transform="rotate(-90 25 225)">
    Share of National Income
  </text>

  <!-- X-axis labels -->
  <text x="80" y="400" text-anchor="middle" font-family="Inter, sans-serif" font-size="12" fill="#666">1960</text>
  <text x="175" y="400" text-anchor="middle" font-family="Inter, sans-serif" font-size="12" fill="#666">1970</text>
  <text x="270" y="400" text-anchor="middle" font-family="Inter, sans-serif" font-size="12" fill="#666">1980</text>
  <text x="365" y="400" text-anchor="middle" font-family="Inter, sans-serif" font-size="12" fill="#666">1990</text>
  <text x="460" y="400" text-anchor="middle" font-family="Inter, sans-serif" font-size="12" fill="#666">2000</text>
  <text x="555" y="400" text-anchor="middle" font-family="Inter, sans-serif" font-size="12" fill="#666">2010</text>
  <text x="650" y="400" text-anchor="middle" font-family="Inter, sans-serif" font-size="12" fill="#666">2020</text>

  <!-- Grid lines -->
  <line x1="80" y1="307" x2="650" y2="307" stroke="#ddd" stroke-width="1" stroke-dasharray="4,4"/>
  <line x1="80" y1="229" x2="650" y2="229" stroke="#ddd" stroke-width="1" stroke-dasharray="4,4"/>
  <line x1="80" y1="151" x2="650" y2="151" stroke="#ddd" stroke-width="1" stroke-dasharray="4,4"/>

  <!-- Top 10% area fill -->
  <path d="M80,200 L90,196 L99,193 L109,191 L118,189
           L128,191 L137,192 L147,198 L156,197 L166,204
           L175,207 L185,204 L194,202 L204,201 L213,207
           L223,205 L232,205 L242,203 L251,204 L261,203
           L270,205 L280,203 L289,201 L299,197 L308,191
           L318,191 L327,192 L337,186 L346,177 L356,180
           L365,180 L375,182 L384,176 L394,178 L403,178
           L413,174 L422,169 L432,165 L441,163 L451,162
           L460,159 L470,163 L479,166 L489,165 L498,161
           L508,155 L517,151 L527,153 L536,155 L546,161
           L555,154 L565,152 L574,144 L584,148 L593,145
           L603,145 L612,146 L622,145 L631,143 L641,144
           L650,150
           L650,380 L80,380 Z"
        fill="url(#topGrad)"/>
  <!-- Top 10% line -->
  <path d="M80,200 L90,196 L99,193 L109,191 L118,189
           L128,191 L137,192 L147,198 L156,197 L166,204
           L175,207 L185,204 L194,202 L204,201 L213,207
           L223,205 L232,205 L242,203 L251,204 L261,203
           L270,205 L280,203 L289,201 L299,197 L308,191
           L318,191 L327,192 L337,186 L346,177 L356,180
           L365,180 L375,182 L384,176 L394,178 L403,178
           L413,174 L422,169 L432,165 L441,163 L451,162
           L460,159 L470,163 L479,166 L489,165 L498,161
           L508,155 L517,151 L527,153 L536,155 L546,161
           L555,154 L565,152 L574,144 L584,148 L593,145
           L603,145 L612,146 L622,145 L631,143 L641,144
           L650,150"
        fill="none" stroke="#800000" stroke-width="3" stroke-linecap="round" stroke-linejoin="round"/>

  <!-- Bottom 50% area fill -->
  <path d="M80,278 L90,288 L99,280 L109,282 L118,284
           L128,282 L137,279 L147,273 L156,274 L166,270
           L175,271 L185,274 L194,275 L204,274 L213,272
           L223,275 L232,274 L242,275 L251,275 L261,275
           L270,276 L280,278 L289,281 L299,285 L308,287
           L318,288 L327,289 L337,290 L346,293 L356,292
           L365,293 L375,294 L384,297 L394,297 L403,297
           L413,299 L422,300 L432,301 L441,301 L451,302
           L460,302 L470,301 L479,300 L489,302 L498,304
           L508,306 L517,307 L527,306 L536,306 L546,306
           L555,308 L565,310 L574,312 L584,311 L593,312
           L603,312 L612,313 L622,310 L631,311 L641,310
           L650,309
           L650,380 L80,380 Z"
        fill="url(#bottomGrad)"/>
  <!-- Bottom 50% line -->
  <path d="M80,278 L90,288 L99,280 L109,282 L118,284
           L128,282 L137,279 L147,273 L156,274 L166,270
           L175,271 L185,274 L194,275 L204,274 L213,272
           L223,275 L232,274 L242,275 L251,275 L261,275
           L270,276 L280,278 L289,281 L299,285 L308,287
           L318,288 L327,289 L337,290 L346,293 L356,292
           L365,293 L375,294 L384,297 L394,297 L403,297
           L413,299 L422,300 L432,301 L441,301 L451,302
           L460,302 L470,301 L479,300 L489,302 L498,304
           L508,306 L517,307 L527,306 L536,306 L546,306
           L555,308 L565,310 L574,312 L584,311 L593,312
           L603,312 L612,313 L622,310 L631,311 L641,310
           L650,309"
        fill="none" stroke="#ff8243" stroke-width="3" stroke-linecap="round" stroke-linejoin="round"/>

  <!-- Legend -->
  <rect x="110" y="52" width="120" height="55" fill="white" stroke="#ddd" rx="4"/>
  <line x1="120" y1="70" x2="140" y2="70" stroke="#800000" stroke-width="3"/>
  <text x="150" y="74" font-family="Inter, sans-serif" font-size="13" fill="#333">Top 10%</text>
  <line x1="120" y1="92" x2="140" y2="92" stroke="#ff8243" stroke-width="3"/>
  <text x="150" y="96" font-family="Inter, sans-serif" font-size="13" fill="#333">Bottom 50%</text>

  <!-- Annotations -->
  <text x="650" y="160" text-anchor="end" font-family="Inter, sans-serif" font-size="12" font-weight="600" fill="#800000">~45%</text>
  <text x="650" y="325" text-anchor="end" font-family="Inter, sans-serif" font-size="12" font-weight="600" fill="#ff8243">~14%</text>

  <!-- Source -->
  <text x="650" y="435" text-anchor="end" font-family="Inter, sans-serif" font-size="10" fill="#999">
    Source: World Inequality Database
  </text>
</svg>