<svg xmlns="http://www.w3.org/2000/svg" viewBox="0 0 700 450">
  <defs>
    <linearGradient id="highGrad" x1="0%" y1="0%" x2="0%" y2="100%">
      <stop offset="0%" style="stop-color:#800000;stop-opacity:0.3"/>
      <stop offset="100%" style="stop-color:#800000;stop-opacity:0.05"/>
    </linearGradient>
    <linearGradient id="lowGrad" x1="0%" y1="0%" x2="0%" y2="100%">
      <stop offset="0%" style="stop-color:#ff8243;stop-opacity:0.3"/>
      <stop offset="100%" style="stop-color:#ff8243;stop-opacity:0.05"/>
    </linearGradient>
  </defs>

  <!-- Background -->
  <rect width="700" height="450" fill="#fafafa"/>

  <!-- Title -->
  <text x="350" y="35" text-anchor="middle" font-family="Inter, sans-serif" font-size="18" font-weight="600" fill="#333">U.S. Federal Income Tax Rates: 1910–2025</text>

  <!-- Axes -->
  <line x1="80" y1="380" x2="650" y2="380" stroke="#333" stroke-width="1.5"/>
  <line x1="80" y1="380" x2="80" y2="70" stroke="#333" stroke-width="1.5"/>

  <!-- Y-axis labels: 0-100%, scale = 310px / 100% = 3.1px per % -->
  <!-- y = 380 - pct*3.1 -->
  <text x="70" y="384" text-anchor="end" font-family="Inter, sans-serif" font-size="12" fill="#666">0%</text>
  <line x1="80" y1="318" x2="650" y2="318" stroke="#ddd" stroke-width="1" stroke-dasharray="4,4"/>
  <text x="70" y="322" text-anchor="end" font-family="Inter, sans-serif" font-size="12" fill="#666">20%</text>
  <line x1="80" y1="256" x2="650" y2="256" stroke="#ddd" stroke-width="1" stroke-dasharray="4,4"/>
  <text x="70" y="260" text-anchor="end" font-family="Inter, sans-serif" font-size="12" fill="#666">40%</text>
  <line x1="80" y1="194" x2="650" y2="194" stroke="#ddd" stroke-width="1" stroke-dasharray="4,4"/>
  <text x="70" y="198" text-anchor="end" font-family="Inter, sans-serif" font-size="12" fill="#666">60%</text>
  <line x1="80" y1="132" x2="650" y2="132" stroke="#ddd" stroke-width="1" stroke-dasharray="4,4"/>
  <text x="70" y="136" text-anchor="end" font-family="Inter, sans-serif" font-size="12" fill="#666">80%</text>
  <text x="70" y="74" text-anchor="end" font-family="Inter, sans-serif" font-size="12" fill="#666">100%</text>

  <!-- Y-axis title -->
  <text x="25" y="225" text-anchor="middle" font-family="Inter, sans-serif" font-size="13" fill="#333" transform="rotate(-90 25 225)">Marginal Tax Rate</text>

  <!-- X-axis labels: x = 80 + (year-1910)*4.957 -->
  <text x="130" y="400" text-anchor="middle" font-family="Inter, sans-serif" font-size="12" fill="#666">1920</text>
  <text x="229" y="400" text-anchor="middle" font-family="Inter, sans-serif" font-size="12" fill="#666">1940</text>
  <text x="328" y="400" text-anchor="middle" font-family="Inter, sans-serif" font-size="12" fill="#666">1960</text>
  <text x="427" y="400" text-anchor="middle" font-family="Inter, sans-serif" font-size="12" fill="#666">1980</text>
  <text x="526" y="400" text-anchor="middle" font-family="Inter, sans-serif" font-size="12" fill="#666">2000</text>
  <text x="625" y="400" text-anchor="middle" font-family="Inter, sans-serif" font-size="12" fill="#666">2020</text>

  <!-- Highest bracket: line -->
  <path d="M80,380 L85,380 L90,380 L95,358 L100,358 L105,358
           L110,334 L115,172 L120,141 L125,154 L130,154 L134,154
           L139,200 L144,200 L149,237 L154,303 L159,303 L164,303
           L169,303 L174,303 L179,303 L184,303 L189,185 L194,185
           L199,185 L204,185 L209,135 L214,135 L219,135 L224,135
           L229,135 L234,129 L239,107 L244,107 L249,89 L253,89
           L258,98 L263,98 L268,98 L273,98 L278,98 L283,98
           L288,95 L293,95 L298,98 L303,98 L308,98 L313,98
           L318,98 L323,98 L328,98 L333,98 L338,98 L343,98
           L348,141 L352,163 L357,163 L362,163 L367,163 L372,163
           L377,163 L382,163 L387,163 L392,163 L397,163 L402,163
           L407,163 L412,163 L417,163 L422,163 L427,163 L432,163
           L437,225 L442,225 L447,225 L452,225 L457,225 L462,261
           L467,293 L472,293 L477,293 L482,284 L487,284 L492,257
           L497,257 L502,257 L507,257 L512,257 L517,257 L522,257
           L527,257 L532,259 L537,260 L542,272 L547,272 L552,272
           L557,272 L562,272 L567,272 L572,272 L577,272 L582,272
           L587,272 L592,257 L597,257 L602,257 L607,257 L612,257
           L617,265 L622,265 L627,265 L632,265 L637,265 L642,265
           L647,265 L650,265"
        fill="none" stroke="#800000" stroke-width="2.5" stroke-linecap="round" stroke-linejoin="round"/>

  <!-- Lowest bracket: line -->
  <path d="M80,380 L85,380 L90,380 L95,377 L100,377 L105,377
           L110,374 L115,374 L120,361 L125,368 L130,368 L134,368
           L139,368 L144,368 L149,374 L154,375 L159,375 L164,375
           L169,375 L174,375 L179,375 L184,375 L189,368 L194,368
           L199,368 L204,368 L209,368 L214,368 L219,368 L224,368
           L229,368 L234,349 L239,321 L244,321 L249,309 L253,309
           L258,318 L263,318 L268,318 L273,318 L278,318 L283,317
           L288,311 L293,311 L298,318 L303,318 L308,318 L313,318
           L318,318 L323,318 L328,318 L333,318 L338,318 L343,318
           L348,330 L352,337 L357,337 L362,337 L367,337 L372,337
           L377,337 L382,337 L387,337 L392,337 L397,337 L402,337
           L407,337 L412,380 L417,380 L422,380 L427,380 L432,380
           L437,380 L442,380 L447,380 L452,380 L457,380 L462,346
           L467,334 L472,334 L477,334 L482,334 L487,334 L492,334
           L497,334 L502,334 L507,334 L512,334 L517,334 L522,334
           L527,334 L532,334 L537,349 L542,349 L547,349 L552,349
           L557,349 L562,349 L567,349 L572,349 L577,349 L582,349
           L587,349 L592,349 L597,349 L602,349 L607,349 L612,349
           L617,349 L622,349 L627,349 L632,349 L637,349 L642,349
           L647,349 L650,349"
        fill="none" stroke="#ff8243" stroke-width="2.5" stroke-linecap="round" stroke-linejoin="round"/>

  <!-- Legend -->
  <rect x="480" y="62" width="150" height="55" fill="white" stroke="#ddd" rx="4"/>
  <line x1="490" y1="80" x2="510" y2="80" stroke="#800000" stroke-width="3"/>
  <text x="520" y="84" font-family="Inter, sans-serif" font-size="13" fill="#333">Highest bracket</text>
  <line x1="490" y1="102" x2="510" y2="102" stroke="#ff8243" stroke-width="3"/>
  <text x="520" y="106" font-family="Inter, sans-serif" font-size="13" fill="#333">Lowest bracket</text>

  <!-- End annotations -->
  <text x="656" y="268" font-family="Inter, sans-serif" font-size="12" font-weight="600" fill="#800000">37%</text>
  <text x="656" y="352" font-family="Inter, sans-serif" font-size="12" font-weight="600" fill="#ff8243">10%</text>

  <!-- Source -->
  <text x="650" y="435" text-anchor="end" font-family="Inter, sans-serif" font-size="10" fill="#999">Source: Tax Foundation</text>
</svg>