<svg xmlns="http://www.w3.org/2000/svg" viewBox="0 0 500 380">
  <!-- Background -->
  <rect width="500" height="380" fill="white"/>

  <!-- Axes -->
  <line x1="60" y1="40" x2="60" y2="320" stroke="#333" stroke-width="2"/>
  <line x1="60" y1="320" x2="460" y2="320" stroke="#333" stroke-width="2"/>

  <!-- Arrow heads -->
  <polygon points="60,40 55,50 65,50" fill="#333"/>
  <polygon points="460,320 450,315 450,325" fill="#333"/>

  <!-- Axis labels -->
  <text x="20" y="180" font-family="Inter, sans-serif" font-size="14" fill="#333" transform="rotate(-90, 20, 180)">Houses</text>
  <text x="260" y="360" font-family="Inter, sans-serif" font-size="14" fill="#333" text-anchor="middle">TikToks</text>

  <!-- Construction Worker PPF - concave, high houses, medium TikToks -->
  <!-- Stays high on houses then drops: control pulls upper-right -->
  <path d="M 60 70 Q 220 90 300 320" stroke="#800000" stroke-width="3" fill="none"/>

  <!-- Shaded feasible region for construction workers -->
  <path d="M 60 70 Q 220 90 300 320 L 60 320 Z" fill="#800000" fill-opacity="0.06"/>

  <!-- Content Creator PPF - mirror image: drops quickly then levels out -->
  <!-- Control pulls lower-left to create opposite curvature -->
  <path d="M 60 200 Q 100 310 420 320" stroke="#ff8243" stroke-width="3" fill="none"/>

  <!-- Shaded feasible region for content creators -->
  <path d="M 60 200 Q 100 310 420 320 L 60 320 Z" fill="#ff8243" fill-opacity="0.06"/>

  <!-- Labels for curves -->
  <text x="180" y="85" font-family="Inter, sans-serif" font-size="12" fill="#800000" font-weight="bold">Construction Workers</text>
  <text x="250" y="295" font-family="Inter, sans-serif" font-size="12" fill="#ff8243" font-weight="bold">Content Creators</text>
</svg>
