<svg xmlns="http://www.w3.org/2000/svg" viewBox="0 0 500 380">
  <!-- Background -->
  <rect width="500" height="380" fill="white"/>

  <!-- Axes -->
  <line x1="60" y1="40" x2="60" y2="320" stroke="#333" stroke-width="2"/>
  <line x1="60" y1="320" x2="460" y2="320" stroke="#333" stroke-width="2"/>

  <!-- Arrow heads -->
  <polygon points="60,40 55,50 65,50" fill="#333"/>
  <polygon points="460,320 450,315 450,325" fill="#333"/>

  <!-- Axis labels -->
  <text x="20" y="180" font-family="Inter, sans-serif" font-size="14" fill="#333" transform="rotate(-90, 20, 180)">Houses</text>
  <text x="260" y="360" font-family="Inter, sans-serif" font-size="14" fill="#333" text-anchor="middle">TikToks</text>

  <!-- Construction Worker PPF -->
  <path d="M 60 70 Q 200 80 300 320" stroke="#800000" stroke-width="3" fill="none"/>
  <path d="M 60 70 Q 200 80 300 320 L 60 320 Z" fill="#800000" fill-opacity="0.06"/>

  <!-- Content Creator PPF -->
  <path d="M 60 200 Q 260 210 420 320" stroke="#ff8243" stroke-width="3" fill="none"/>
  <path d="M 60 200 Q 260 210 420 320 L 60 320 Z" fill="#ff8243" fill-opacity="0.06"/>

  <!-- Optimal point for CW - mostly houses -->
  <circle cx="120" cy="82" r="8" fill="#2E7D32"/>
  <text x="75" y="55" font-family="Inter, sans-serif" font-size="10" fill="#2E7D32" font-weight="bold">Optimal</text>

  <!-- Optimal point for CC - mostly TikToks -->
  <circle cx="320" cy="280" r="8" fill="#2E7D32"/>
  <text x="330" y="270" font-family="Inter, sans-serif" font-size="10" fill="#2E7D32" font-weight="bold">Optimal</text>

  <!-- Parallel tangent lines - SAME SLOPE (price ratio) -->
  <!-- CW tangent through (120, 82) -->
  <line x1="70" y1="57" x2="180" y2="112" stroke="#2E7D32" stroke-width="2.5" stroke-dasharray="8,4"/>

  <!-- CC tangent through (320, 280) - SAME SLOPE as CW tangent -->
  <line x1="260" y1="250" x2="380" y2="310" stroke="#2E7D32" stroke-width="2.5" stroke-dasharray="8,4"/>

  <!-- Price ratio annotation -->
  <text x="185" y="105" font-family="Inter, sans-serif" font-size="10" fill="#2E7D32">slope = price ratio</text>
  <text x="385" y="300" font-family="Inter, sans-serif" font-size="10" fill="#2E7D32">same slope!</text>

  <!-- Labels for curves -->
  <text x="170" y="62" font-family="Inter, sans-serif" font-size="12" fill="#800000" font-weight="bold">Construction Workers</text>
  <text x="350" y="320" font-family="Inter, sans-serif" font-size="12" fill="#ff8243" font-weight="bold">Content Creators</text>

  <!-- Key insight box -->
  <rect x="300" y="55" width="180" height="55" fill="white" stroke="#2E7D32" stroke-width="2" rx="5"/>
  <text x="310" y="75" font-family="Inter, sans-serif" font-size="11" fill="#2E7D32" font-weight="bold">At these points:</text>
  <text x="310" y="92" font-family="Inter, sans-serif" font-size="10" fill="#333">Total value is MAXIMIZED</text>
  <text x="310" y="105" font-family="Inter, sans-serif" font-size="9" fill="#666">(tangent slopes = price ratio)</text>
</svg>
