<svg xmlns="http://www.w3.org/2000/svg" viewBox="0 0 500 380">
  <!-- Background -->
  <rect width="500" height="380" fill="white"/>

  <!-- Axes -->
  <line x1="60" y1="40" x2="60" y2="320" stroke="#333" stroke-width="2"/>
  <line x1="60" y1="320" x2="460" y2="320" stroke="#333" stroke-width="2"/>

  <!-- Arrow heads -->
  <polygon points="60,40 55,50 65,50" fill="#333"/>
  <polygon points="460,320 450,315 450,325" fill="#333"/>

  <!-- Axis labels -->
  <text x="20" y="180" font-family="Inter, sans-serif" font-size="14" fill="#333" transform="rotate(-90, 20, 180)">Houses</text>
  <text x="260" y="360" font-family="Inter, sans-serif" font-size="14" fill="#333" text-anchor="middle">TikToks</text>

  <!-- Construction Worker PPF - concave (bows outward from origin) -->
  <!-- High houses, medium TikToks. Curve stays high then drops. -->
  <path d="M 60 70 Q 200 80 300 320" stroke="#800000" stroke-width="3" fill="none"/>

  <!-- Shaded feasible region for construction workers -->
  <path d="M 60 70 Q 200 80 300 320 L 60 320 Z" fill="#800000" fill-opacity="0.06"/>

  <!-- Content Creator PPF - concave (bows outward from origin) -->
  <!-- Lower houses, high TikToks. Also bows outward. -->
  <path d="M 60 200 Q 260 210 420 320" stroke="#ff8243" stroke-width="3" fill="none"/>

  <!-- Shaded feasible region for content creators -->
  <path d="M 60 200 Q 260 210 420 320 L 60 320 Z" fill="#ff8243" fill-opacity="0.06"/>

  <!-- Labels for curves -->
  <text x="170" y="70" font-family="Inter, sans-serif" font-size="12" fill="#800000" font-weight="bold">Construction Workers</text>
  <text x="320" y="260" font-family="Inter, sans-serif" font-size="12" fill="#ff8243" font-weight="bold">Content Creators</text>
</svg>
