<svg xmlns="http://www.w3.org/2000/svg" viewBox="0 0 750 450">
  <!-- Background -->
  <rect width="750" height="450" fill="#fafafa"/>

  <!-- Title -->
  <text x="375" y="30" text-anchor="middle" font-family="Inter, sans-serif" font-size="18" font-weight="600" fill="#333">
    Distortions Reduce Total Output
  </text>

  <!-- LEFT PANEL: Before Tax -->
  <text x="175" y="60" text-anchor="middle" font-family="Inter, sans-serif" font-size="15" font-weight="600" fill="#333">
    Before Tax
  </text>

  <!-- Axes - Left panel -->
  <line x1="50" y1="380" x2="320" y2="380" stroke="#333" stroke-width="1.5"/>
  <line x1="50" y1="380" x2="50" y2="90" stroke="#333" stroke-width="1.5"/>

  <!-- Axis labels -->
  <text x="185" y="410" text-anchor="middle" font-family="Inter, sans-serif" font-size="12" fill="#666">TikToks</text>
  <text x="25" y="235" text-anchor="middle" font-family="Inter, sans-serif" font-size="12" fill="#666" transform="rotate(-90 25 235)">Houses</text>

  <!-- PPF curve (concave) - Left -->
  <path d="M50,120 Q180,130 250,200 Q290,250 310,380"
        fill="none" stroke="#800000" stroke-width="2.5"/>

  <!-- Optimal point - Left (tangent to price line) -->
  <circle cx="200" cy="175" r="8" fill="#800000"/>
  <text x="210" y="160" font-family="Inter, sans-serif" font-size="12" font-weight="600" fill="#800000">Optimal</text>

  <!-- Price line tangent - Left -->
  <line x1="100" y1="120" x2="280" y2="250" stroke="#ff8243" stroke-width="1.5" stroke-dasharray="6,4"/>
  <text x="290" y="265" font-family="Inter, sans-serif" font-size="11" fill="#ff8243">Price ratio</text>

  <!-- Workers allocation annotation -->
  <text x="50" y="395" font-family="Inter, sans-serif" font-size="10" fill="#666">Content creators: mostly TikToks</text>
  <text x="50" y="408" font-family="Inter, sans-serif" font-size="10" fill="#666">Construction workers: mostly houses</text>


  <!-- ARROW between panels -->
  <path d="M340,220 L390,220" stroke="#333" stroke-width="2" marker-end="url(#arrowhead)"/>
  <text x="365" y="200" text-anchor="middle" font-family="Inter, sans-serif" font-size="11" fill="#666">Tax on</text>
  <text x="365" y="214" text-anchor="middle" font-family="Inter, sans-serif" font-size="11" fill="#666">TikToks</text>

  <defs>
    <marker id="arrowhead" markerWidth="10" markerHeight="7" refX="9" refY="3.5" orient="auto">
      <polygon points="0 0, 10 3.5, 0 7" fill="#333"/>
    </marker>
  </defs>


  <!-- RIGHT PANEL: After Tax -->
  <text x="565" y="60" text-anchor="middle" font-family="Inter, sans-serif" font-size="15" font-weight="600" fill="#333">
    After Tax
  </text>

  <!-- Axes - Right panel -->
  <line x1="430" y1="380" x2="700" y2="380" stroke="#333" stroke-width="1.5"/>
  <line x1="430" y1="380" x2="430" y2="90" stroke="#333" stroke-width="1.5"/>

  <!-- Axis labels -->
  <text x="565" y="410" text-anchor="middle" font-family="Inter, sans-serif" font-size="12" fill="#666">TikToks</text>
  <text x="405" y="235" text-anchor="middle" font-family="Inter, sans-serif" font-size="12" fill="#666" transform="rotate(-90 405 235)">Houses</text>

  <!-- PPF curve - Right (same curve) -->
  <path d="M430,120 Q560,130 630,200 Q670,250 690,380"
        fill="none" stroke="#800000" stroke-width="2.5"/>

  <!-- Old optimal point (faded) -->
  <circle cx="580" cy="175" r="6" fill="none" stroke="#ccc" stroke-width="2" stroke-dasharray="3,2"/>

  <!-- New distorted point - more houses, fewer TikToks -->
  <circle cx="530" cy="150" r="8" fill="#d35400"/>
  <text x="540" y="135" font-family="Inter, sans-serif" font-size="12" font-weight="600" fill="#d35400">Distorted</text>

  <!-- Distorted price line (steeper - TikToks appear more expensive) -->
  <line x1="450" y1="115" x2="590" y2="200" stroke="#d35400" stroke-width="1.5" stroke-dasharray="6,4"/>
  <text x="600" y="210" font-family="Inter, sans-serif" font-size="11" fill="#d35400">Tax-distorted</text>
  <text x="600" y="223" font-family="Inter, sans-serif" font-size="11" fill="#d35400">prices</text>

  <!-- Deadweight loss shading -->
  <path d="M530,150 Q555,162 580,175"
        fill="none" stroke="#e74c3c" stroke-width="8" opacity="0.4"/>

  <!-- Workers reallocation annotation -->
  <text x="430" y="395" font-family="Inter, sans-serif" font-size="10" fill="#666">Some creators switch to construction</text>
  <text x="430" y="408" font-family="Inter, sans-serif" font-size="10" fill="#666">(but they're bad at it!)</text>


  <!-- Bottom annotation box -->
  <rect x="200" y="420" width="350" height="25" fill="#800000" rx="4" opacity="0.1"/>
  <text x="375" y="438" text-anchor="middle" font-family="Inter, sans-serif" font-size="12" fill="#800000">
    <tspan font-weight="600">Result:</tspan> Total value of output falls (deadweight loss)
  </text>
</svg>