<svg xmlns="http://www.w3.org/2000/svg" width="248" height="41" viewBox="0 0 248 41"><defs><clipPath id="r3wea"><path d="M0 41h248V0H0z"/></clipPath><clipPath id="r3web"><path d="M0 41h248V0H0z"/></clipPath></defs><g><g><g opacity=".5"><path fill="#800000" d="M48.334 32.325H28.83l-1.443-6.203L49.302.79h7.417v40.13h-8.385zm0-7.115V12.801l-10.61 12.41z"/></g><g><path fill="#800000" d="M14.52.698L0 17.21V41h14.532l6.769-7.927H8.815V24.62h15.938v-7.916H8.815V8.578h23.31V.698z"/></g><g><path fill="#800000" d="M64.13 41h23.752v-7.927H64.13z"/></g><g><path fill="#800000" d="M64.13 24.61h15.407v-7.906H64.13z"/></g><g><path fill="#800000" d="M64.13 8.578h23.896V.698H64.13z"/></g><g><path fill="#800000" d="M99.276 10.964H248v-.577H99.276z"/></g><g><g><g opacity=".6"><path fill="#800000" d="M101.13 1.38h-1.915V.106h5.211V1.38h-1.914v5.004h-1.383z"/></g><g opacity=".6"><path fill="#800000" d="M105.788.106h1.383v2.485h2.552V.106h1.345v6.276h-1.345V3.863h-2.552v2.52h-1.383z"/></g><g opacity=".6"><path fill="#800000" d="M112.939.106h4.744v1.229h-3.37v1.274h2.964v1.227h-2.964v1.318h3.414v1.228h-4.788z"/></g><g opacity=".6"><path fill="#800000" d="M122.174 3.693V.106h1.383v3.55c0 1.022.513 1.552 1.357 1.552.845 0 1.368-.511 1.368-1.506V.106h1.371v3.541c0 1.903-1.068 2.834-2.757 2.834-1.657 0-2.722-.941-2.722-2.788"/></g><g opacity=".6"><path fill="#800000" d="M129.325.106h1.336l2.947 3.865V.106h1.365v6.276h-1.176l-3.046-3.989v3.99h-1.426z"/></g><g/><g clip-path="url(#r3wea)" opacity=".6"><path fill="#800000" d="M136.85 6.382h1.383V.106h-1.383z"/></g><g clip-path="url(#r3wea)" opacity=".6"><path fill="#800000" d="M139.58.106h1.527l1.644 4.45 1.644-4.45h1.491l-2.542 6.32h-1.222z"/></g><g clip-path="url(#r3wea)" opacity=".6"><path fill="#800000" d="M147.172.106h4.744v1.229h-3.37v1.274h2.965v1.227h-2.965v1.318h3.414v1.228h-4.788z"/></g><g clip-path="url(#r3wea)" opacity=".6"><path fill="#800000" d="M153.501.106h2.874c.8 0 1.42.225 1.858.638.326.35.514.775.514 1.435v.017c0 1.014-.514 1.65-1.348 1.945l1.537 2.241h-1.617l-1.348-2.007h-1.087v2.007h-1.383zm2.785 3.05c.674 0 1.06-.359 1.06-.889V2.25c0-.592-.414-.897-1.088-.897h-1.374v1.803z"/></g><g clip-path="url(#r3wea)" opacity=".6"><path fill="#800000" d="M159.892 5.467l.817-.911c.567.4 1.159.695 1.879.695.564 0 .906-.223.906-.59v-.019c0-.349-.216-.528-1.267-.797-1.266-.324-2.083-.673-2.083-1.92v-.018c0-1.137.916-1.907 2.2-1.907.916 0 1.698.302 2.336.814l-.719 1.04c-.556-.335-1.163-.62-1.635-.62-.53 0-.808.285-.808.547v.02c0 .411.27.545 1.28.824 1.35.332 2.07.789 2.07 1.93 0 1.217-.952 1.915-2.308 1.915-.952 0-1.914-.396-2.668-1.003"/></g><g clip-path="url(#r3wea)" opacity=".6"><path fill="#800000" d="M166.442 6.382h1.383V.106h-1.383z"/></g><g clip-path="url(#r3wea)" opacity=".6"><path fill="#800000" d="M171.178 1.38h-1.914V.106h5.21V1.38h-1.913v5.004h-1.383z"/></g><g clip-path="url(#r3wea)" opacity=".6"><path fill="#800000" d="M177.614 3.907l-2.416-3.8h1.617l1.499 2.518L179.84.106h1.572l-2.416 3.774v2.5h-1.383z"/></g><g clip-path="url(#r3wea)" opacity=".6"><path fill="#800000" d="M185.33 3.263v-.018c0-1.726 1.411-3.245 3.333-3.245 1.96 0 3.351 1.519 3.351 3.227v.018c0 1.784-1.41 3.245-3.351 3.245-1.94 0-3.332-1.442-3.332-3.227m5.236 0v-.018c0-1.075-.79-1.973-1.904-1.973-1.114 0-1.887.88-1.887 1.955v.018c0 1.077.791 1.973 1.887 1.973 1.132 0 1.904-.878 1.904-1.955"/></g><g clip-path="url(#r3wea)" opacity=".6"><path fill="#800000" d="M193.547.106h4.788v1.256h-3.405v1.335h3v1.256h-3v2.43h-1.383z"/></g><g clip-path="url(#r3wea)" opacity=".6"><path fill="#800000" d="M202.493 3.263v-.018A3.25 3.25 0 0 1 205.772 0c1.148 0 1.895.395 2.48.969l-.881 1.013c-.45-.463-.98-.71-1.609-.71-1.06 0-1.885.88-1.885 1.955v.018c0 1.077.808 1.973 1.885 1.973.72 0 1.158-.286 1.654-.662l.88.815c-.647.703-1.376 1.12-2.58 1.12-1.839 0-3.223-1.425-3.223-3.228"/></g><g clip-path="url(#r3wea)" opacity=".6"><path fill="#800000" d="M209.705.106h1.383v2.485h2.551V.106h1.383v6.276h-1.383V3.863h-2.551v2.52h-1.383z"/></g><g clip-path="url(#r3wea)" opacity=".6"><path fill="#800000" d="M216.91 6.382h1.382V.106h-1.383z"/></g><g clip-path="url(#r3wea)" opacity=".6"><path fill="#800000" d="M219.914 3.263v-.018A3.227 3.227 0 0 1 223.192 0c1.186 0 1.896.395 2.48.969l-.88 1.013c-.486-.463-.98-.71-1.609-.71-1.048 0-1.822.88-1.822 1.955v.018c0 1.077.774 1.973 1.822 1.973.72 0 1.16-.286 1.654-.662l.88.815c-.647.703-1.365 1.12-2.58 1.12-1.85 0-3.223-1.425-3.223-3.228"/></g><g clip-path="url(#r3wea)" opacity=".6"><path fill="#800000" d="M229.289 0h1.275l2.694 6.382h-1.445l-.55-1.407h-2.685l-.575 1.407h-1.41zm1.454 3.755l-.835-2.035-.835 2.035z"/></g><g clip-path="url(#r3wea)" opacity=".6"><path fill="#800000" d="M233.85 3.263v-.018A3.26 3.26 0 0 1 237.147 0c1.132 0 1.814.305 2.47.861l-.87 1.05c-.486-.392-.917-.639-1.645-.639-1.006 0-1.805.889-1.805 1.955v.018c0 1.148.79 1.99 1.904 1.99.503 0 .952-.125 1.302-.376v-.896h-1.392V2.77h2.73v2.726c-.646.578-1.536.994-2.684.994-1.959 0-3.307-1.37-3.307-3.227"/></g><g clip-path="url(#r3wea)" opacity=".6"><path fill="#800000" d="M241.214 3.263v-.018c0-1.726 1.41-3.245 3.35-3.245 1.915 0 3.334 1.519 3.334 3.227v.018c0 1.784-1.42 3.245-3.352 3.245-1.94 0-3.332-1.442-3.332-3.227m5.265 0v-.018c0-1.075-.819-1.973-1.933-1.973-1.11 0-1.886.88-1.886 1.955v.018c0 1.077.776 1.973 1.905 1.973 1.113 0 1.914-.878 1.914-1.955"/></g></g><g><g><path fill="#800000" d="M99.276 15.003h8.018v2.076H101.6v2.151h5.01v2.03h-5.01v2.274h5.77v2.076h-8.093z"/></g><g><path fill="#800000" d="M109.18 20.336v-.03c0-3.016 2.278-5.485 5.544-5.485 2.003 0 3.202.666 4.188 1.635l-1.486 1.766c-.82-.795-1.656-1.25-2.72-1.25-1.79 0-3.082 1.486-3.082 3.303v.03c0 1.82 1.262 3.335 3.083 3.335 1.215 0 1.96-.486 2.795-1.243l1.486 1.501c-1.092 1.165-2.306 1.917-4.357 1.917-3.128 0-5.45-2.433-5.45-5.479"/></g><g><path fill="#800000" d="M120.318 20.336v-.03c0-3.016 2.384-5.485 5.663-5.485 3.344 0 5.632 2.44 5.632 5.454v.03c0 3.016-2.382 5.51-5.662 5.51s-5.633-2.463-5.633-5.48m8.852 0v-.03c0-1.819-1.366-3.333-3.22-3.333-1.883 0-3.187 1.486-3.187 3.303v.03c0 1.82 1.336 3.335 3.218 3.335 1.823 0 3.189-1.486 3.189-3.304"/></g><g><path fill="#800000" d="M133.783 15.003h2.156l4.98 6.531v-6.531h2.308V25.61h-1.989l-5.147-6.742v6.742h-2.308z"/></g><g><path fill="#800000" d="M145.468 20.336v-.03c0-3.016 2.383-5.485 5.661-5.485 3.282 0 5.583 2.44 5.583 5.454v.03c0 3.016-2.333 5.51-5.612 5.51-3.28 0-5.632-2.463-5.632-5.48m8.85 0v-.03c0-1.819-1.335-3.333-3.218-3.333s-3.189 1.486-3.189 3.303v.03c0 1.82 1.336 3.335 3.218 3.335 1.885 0 3.19-1.486 3.19-3.304"/></g><g><path fill="#800000" d="M158.933 15.003h2.52l2.866 4.486 2.72-4.486h2.521V25.61h-2.323v-6.925l-2.918 4.532h-.134l-2.909-4.486v6.879h-2.343z"/></g><g/><g clip-path="url(#r3web)"><path fill="#800000" d="M172.413 25.61h2.339V15.003h-2.339z"/></g><g clip-path="url(#r3web)"><path fill="#800000" d="M177.16 20.336v-.03c0-3.016 2.278-5.485 5.543-5.485 2.004 0 3.203.666 4.189 1.635l-1.487 1.766c-.82-.795-1.655-1.25-2.719-1.25-1.79 0-3.152 1.486-3.152 3.303v.03c0 1.82 1.331 3.335 3.152 3.335 1.216 0 1.96-.486 2.795-1.243l1.487 1.501c-1.093 1.165-2.307 1.917-4.391 1.917-3.043 0-5.417-2.433-5.417-5.479"/></g><g clip-path="url(#r3web)"><path fill="#800000" d="M188.313 24.064l1.381-1.652c.957.788 2.012 1.289 3.174 1.289.957 0 1.534-.38 1.534-1v-.031c0-.592-.364-.894-2.141-1.41-2.077-.485-3.598-1.076-3.598-3.18v-.032c0-1.924 1.625-3.197 3.796-3.197 1.547 0 2.868.484 3.946 1.347l-1.214 1.76c-.942-.653-1.868-1.046-2.764-1.046-.896 0-1.365.41-1.365.923v.03c0 .699.453.925 2.291 1.396 2.156.56 3.37 1.333 3.37 3.183v.029c0 2.106-1.608 3.342-3.9 3.342-1.61 0-3.235-.615-4.51-1.751"/></g><g clip-path="url(#r3web)"><path fill="#800000" d="M99.276 29.945h8.093v2.12h-5.754v2.26h5.07v2.12h-5.07v4.107h-2.339z"/></g><g clip-path="url(#r3web)"><path fill="#800000" d="M108.968 35.28v-.032c0-3.014 2.382-5.485 5.661-5.485 3.282 0 5.567 2.44 5.567 5.456v.029c0 3.017-2.317 5.486-5.596 5.486-3.28 0-5.632-2.44-5.632-5.454m8.85 0v-.032c0-1.84-1.336-3.36-3.218-3.36-1.883 0-3.189 1.52-3.189 3.331v.029c0 1.82 1.336 3.335 3.218 3.335 1.885 0 3.19-1.486 3.19-3.303"/></g><g clip-path="url(#r3web)"><path fill="#800000" d="M122.342 29.945h4.86c1.35 0 2.399.425 3.097 1.075.548.593.91 1.426.91 2.387 0 1.782-.925 2.858-2.278 3.358l2.596 3.788h-2.733l-2.277-3.395h-1.837v3.395h-2.338zm4.707 5.152c1.138 0 1.792-.605 1.792-1.5v-.03c0-1-.698-1.516-1.838-1.516h-2.323v3.046z"/></g><g clip-path="url(#r3web)"><path fill="#800000" d="M138.302 29.945h8.018v2.076h-5.695v2.152h5.01v2.076h-5.01v2.227h5.77v2.076h-8.093z"/></g><g clip-path="url(#r3web)"><path fill="#800000" d="M147.765 29.945h2.582l2.779 7.47 2.78-7.47h2.519l-4.297 10.683h-2.066z"/></g><g clip-path="url(#r3web)"><path fill="#800000" d="M160.211 29.945h8.017v2.076h-5.695v2.152h5.01v2.076h-5.01v2.227h5.77v2.076h-8.092z"/></g><g clip-path="url(#r3web)"><path fill="#800000" d="M170.603 29.945h4.86c1.349 0 2.397.425 3.095 1.075a3.35 3.35 0 0 1 .976 2.387c0 1.782-.99 2.858-2.342 3.358l2.596 3.788h-2.733l-2.277-3.395h-1.838v3.395h-2.337zm4.706 5.152c1.182 0 1.792-.605 1.792-1.5v-.03c0-1-.698-1.516-1.837-1.516h-2.324v3.046z"/></g><g clip-path="url(#r3web)"><path fill="#800000" d="M184.395 36.368l-4.085-6.423h2.734l2.576 4.257 2.54-4.257h2.659l-4.086 6.38v4.227h-2.338z"/></g><g clip-path="url(#r3web)"><path fill="#800000" d="M191.097 35.28v-.032c0-3.014 2.383-5.485 5.661-5.485 3.282 0 5.598 2.44 5.598 5.456v.029c0 3.017-2.348 5.486-5.627 5.486-3.28 0-5.632-2.44-5.632-5.454m8.85 0v-.032c0-1.84-1.335-3.36-3.218-3.36s-3.189 1.52-3.189 3.331v.029c0 1.82 1.336 3.335 3.218 3.335 1.885 0 3.19-1.486 3.19-3.303"/></g><g clip-path="url(#r3web)"><path fill="#800000" d="M204.684 29.945h2.156l4.98 6.5v-6.5h2.308v10.607h-1.99l-5.218-6.744v6.744h-2.236z"/></g><g clip-path="url(#r3web)"><path fill="#800000" d="M216.886 29.945h8.017v2.076h-5.695v2.152h5.01v2.076h-5.01v2.227h5.769v2.076h-8.091z"/></g></g></g></g></g></svg>