 <svg width="169.20643" viewBox="0 0 169.20643 141" xmlns="http://www.w3.org/2000/svg">
    <path d="M86.142932 8.322822s.947518-1.021966.94075-1.752909c-.064584-.676195-.401823-1.29691-.933982-1.719068a19.410585 19.410585 0 0 1 3.383993 1.759676l-3.390761 1.7123ZM92.1326 6.515769v-.13536c-2.091308-.29779-3.634409-2.707194-5.556517-3.383993-2.646283-1.00843-5.549749 1.962716-5.549749 2.28758 0 .717406.751246 1.082878 2.88993-.263952-.46295.486075-.701448 1.143656-.657735 1.813492.043713.669837.36565 1.290844.887847 1.71263a7.343266 7.343266 0 0 1-2.328188-.6768c-.128591.6768.981358 1.51603 1.441582 1.827357 1.421277.582047 2.707194.758014 3.83068.1692 1.705532-.893375 3.167418-2.930539 5.04215-3.29601m58.204683 82.061836c-.900054 4.852193-2.804208 9.462737-5.590356 13.535973-2.030396 2.971146-2.876395-2.808714-1.116718-8.392303 2.644476-1.115855 4.955101-2.897205 6.707074-5.170742m-3.140345.622655c-6.531107 6.456659-16.324384 4.121704-24.039888 7.580145-6.998098 2.55153-12.060552 9.028494-19.390281 10.659578-2.158988.676799-2.517691 1.779981-1.137022 1.739373.80539 0 5.272261 4.649607 12.426023 1.049038 2.382331-1.204702 9.800044-5.339941 11.05889-5.576821-4.013416 3.83068-6.030276 7.248514-9.624077 9.272141-2.192827 1.231774-11.140106 4.4398-20.060312 2.707195-3.952504-.77155-6.998098 2.876394-5.989668 2.795178 2.11838-.56851 4.487175-.277487 5.91522 1.590477 2.59214 2.030396 6.341604 4.561623 9.569933.791855 1.069342-1.252078 6.192708-3.918664 11.011514.97459-5.123366-.263952-4.615767 8.954046-14.314291 7.871168-3.593801 0-11.505577-8.250175-13.793157-5.705413-4.013416 4.514247 8.622415 8.798383 3.153882 14.469956-4.94063 5.123365-10.828778-4.060792-10.828778-4.060792 3.079434 1.292685 8.798382 2.125147 6.260387-2.889931-.988126-1.989788-2.883162-3.783304-2.883162-7.444785-.433151-1.834124-11.735688 14.571475-19.207546 7.16053-2.937306-2.917002-8.893134-9.299213-14.280451-11.735689 14.273683-1.211469 16.446207 4.507479 17.129774 5.41439 4.56839 6.165635 8.798382-.094752 9.759436-1.191166 1.48219-1.691997 3.587033-4.026952 2.842555-4.378887-4.696983-2.226668-8.933743-2.565067-14.023268-2.334956-.812159.040608-2.131916.155664-2.131916.155664a9.921884 9.921884 0 0 1 1.793516-2.030396c6.35514-5.001542 12.926854-1.488957 13.535973-.825694 0 0-.216575-4.060792-8.121584-5.069222-6.206243-.798622-11.674776 4.784966-15.985984 4.778198-3.505817 0-14.124787-7.187601-16.622174-13.535973 6.179171 4.629303 13.975892 8.852527 18.88945 5.915221 9.231533-5.515909 20.980758 1.238541 21.515429.243647-2.585371-2.030396-8.466751-9.928636-24.324143-5.414389-6.25362 1.77998-8.74424-2.625979-12.527544-2.707195 6.429588-5.71218 10.882923-2.808714 13.129894-2.632746.534671 0-2.179291-4.263832-4.439799-4.277368-18.395387-.087984-29.203861-5.14367-29.203861-5.14367s2.910234-3.011753 9.07587-1.103181c0 0-6.226548-4.060792-6.165636-9.366894.216575-3.275705 1.272381-6.88981-1.238542-9.624076 10.15198-.419615 2.950842 13.786388 10.091068 17.447869.155664.060912-1.962716-1.773213 1.21147-4.446567 1.482189 4.16908 4.97447 4.70375 7.526 5.37378.4169.128376.870454.036646 1.204702-.243647.341991-.370498.397213-.922714.13536-1.353597-1.441581-2.382331-1.766445-4.73759-2.030396-7.512465a33.23081 33.23081 0 0 1-.128592-7.72904l.108288-.060912c.575279 0 1.428045 1.7123 2.111612 3.19449.778318 1.671692 1.137021 3.735928 1.732604 5.861076a15.911536 15.911536 0 0 0 2.707195 5.718948c1.637853 2.08454 2.646283 4.16908 4.114936 5.17751a7.180833 7.180833 0 0 0 .758014-3.383993c-.331631-2.416172-2.531227-6.571715 1.590477-10.300876 1.928876 5.570053 4.933862 5.103062 5.292565 7.769649.494063 3.742696 0 2.226667.37224 5.096293.372239 2.869627 2.524459 3.959272 5.71218 6.4905 7.187602 3.918664 12.40572 5.515908 15.56637 10.530986 1.021965-5.651268-8.30432-8.798382-14.077413-14.808354-2.869626-2.977914-5.028614-6.226547-4.2706-11.681545.365472-2.673354.60912-4.947398-.676798-7.363569a7.289122 7.289122 0 0 0-2.294347-2.876394c3.099737.087984 5.150437 2.537995 7.282353 4.960934 2.944283 3.448139 4.930496 7.609616 5.759557 12.06732.920446 5.04215 4.73759 5.529445 8.947278 12.107928.39931.148895-2.632747-5.218118-2.199596-14.848963a47.795521 47.795521 0 0 1 2.030396-11.376985 26.855366 26.855366 0 0 1 2.280811-5.373781 29.779153 29.779153 0 0 1 .97459 4.392423 36.154585 36.154585 0 0 1 .1692 7.444785 29.18356 29.18356 0 0 0-.087984 4.114936c.121824 1.502493.724175 3.499049.812159 4.480407.175967 2.030396-.392543-7.201138 6.51757-11.9658.433152 3.478745 3.19449 8.954046 0 14.727138-3.837448 7.031938-4.825574 4.317976-3.607336 13.068982-.054144-.372239 2.301115-5.522677 4.933862-8.798382 5.570053-6.971026.63619-11.146874 6.091188-17.190686.433151 3.018522 1.197934 1.827357 1.522797 4.514247.730942 6.037044-5.563285 12.642599-4.175848 12.446327 1.604013-.230111 4.175848-1.624316 5.035382-6.206243a11.783048 11.783048 0 0 1 .676799 2.612443c.20186 1.047052-.101608 2.128002-.818927 2.917002a26.659278 26.659278 0 0 0-1.962716 1.976252c-1.633996 1.68375-2.279372 4.093665-1.705532 6.368675 1.895036-2.274044 5.251957-4.060792 6.585251-6.815362.832462-1.712301.97459-4.588695.676798-6.598787.351936-3.167418 3.532889-3.857753 4.216456-11.214554.115056-1.218237.852766-2.88993 2.030396-3.539657-.527903 4.13524 2.030396 8.798383-1.610781 13.826997.832462.446687 3.458441-3.647945 7.96592-2.030396-9.04203 1.631085-6.294227 11.004746-13.224646 15.566369-2.091307 1.353597-1.732604 2.910234-2.355259 3.079433 6.18594-.345167 12.574919-6.091187 13.407381-6.639394 6.490499-4.216456 8.182496-6.646163 9.881261-13.461525.466991-1.84766.676798-3.120042 1.177629-4.622535.277488-.80539 1.00843-1.631085 2.08454-2.707195a7.904994 7.904994 0 0 1 .521135 2.99145c.03384 3.56673-1.739372 6.971026-2.138684 8.121584a24.134632 24.134632 0 0 1-3.776536 6.463427c-.392543.43992-.243648.791855 0 .676799 17.00795-6.510803 17.048558-12.182376 21.034902-17.461405 1.197933-2.030396 6.551411-5.644501 8.764542-5.969364-.541439 1.096413-2.849322 2.950842-2.950842 4.947398-.203039 3.688552-1.394205 5.942292-3.255401 8.899902 1.035502 1.285917 3.02529-2.429707 5.062454-.561743-2.707195.893374-3.891593 3.891592-5.9829 5.658037m-15.167058-6.206244a18.48346 18.48346 0 0 0 .602351-3.485513 4.378915 4.378915 0 0 0 .128591-.87307c0-.182736 4.114936 3.769768 4.37212 3.938968a16.527415 16.527415 0 0 1-2.294348 2.598907c-.845998-.785087-2.896698-2.111612-2.85609-2.274044l.047376.094752Zm.954286 3.837448c-2.172524 1.908573-3.221562 2.274044-2.747803 1.353598a17.062041 17.062041 0 0 0 .845999-2.429707c.047376-.385776 1.854428.981358 1.854428.981358l.047376.094752ZM118.202884 5.189245c4.73759-1.631085 14.659458-.818926 18.950362 1.028734 1.955623.753027 4.086741.9269 6.138564.50083 0 1.00843-1.218238 1.475422-1.928877 1.678461-1.076109.3384-3.79684.6768-3.715624 1.44835.054144.460223 2.849322.676798 3.810376.798622 2.510923.223344 3.823913.263952 6.558179 1.441581a22.923176 22.923176 0 0 1 5.414389 4.060792 19.579779 19.579779 0 0 0-5.123365-1.5431 6.38898 6.38898 0 0 0-2.768107.081215s2.781643 1.001662 3.289241 1.238541a22.117778 22.117778 0 0 1 6.260388 5.732485l9.549629 9.71206c-.406079.487296-3.275706.13536-11.93196-7.573376-.902398-.776063-1.845405-1.637853-2.829019-2.585371-.426383.385775-.101519 1.590477 1.461885 3.302777 4.060792 4.412727 13.468294 12.534311 17.867485 21.068742-.527903.365471-7.309426-2.774874-10.05046-5.603893-4.223224-4.372119-9.894796-15.12645-11.891352-13.495365-.06768 0-.060912 1.191166.893374 2.774875 2.524459 4.182615 8.256943 12.3042 11.221321 17.853948 2.064236 3.86452 3.763001 9.41427 3.898361 13.590117.676798 20.594983-2.436476 19.011274-2.436476 19.011274-4.818806-16.243168-7.072545-35.078474-14.104483-43.775337-1.028734-1.265613-1.353598.324864-.148896 3.647945 2.030396 5.77986 6.767986 16.831983 7.086082 27.525401-1.834125.615887-6.720611 2.35526-6.767987 3.038826a28.797855 28.797855 0 0 0-.094751-4.473639 54.191296 54.191296 0 0 0-4.778199-18.192348c-.886606-2.030396-1.834124-1.170861-1.651389 1.258846.284256 3.803608 1.901805 10.375323 2.030396 12.859174 0 .175968-18.68641-21.826756-7.322961-3.045594 2.984682 4.845878 8.358463 9.24507 8.399071 9.326286.20304 2.165755 0 2.429707-.642959 4.250295-.514367.40608-5.54298-4.784966-9.901564-9.860956-5.502373-6.42282-12.331271-9.840653-3.05913 2.761338 1.976252 2.707195 11.505577 10.828779 11.417594 11.011514-.561743 1.353598-.791855 2.3891-2.2199 3.99988-.243648.27072-5.894916-4.46687-5.928756-4.73759-.3384-2.571835.060912-4.466871-3.133578-2.632747 0 0-2.497387-2.849322-4.663143-4.913558-2.829018-2.707195-6.767986-4.020184-3.282473 1.353597a29.325687 29.325687 0 0 0 5.062454 6.091188s-1.00843.63619-1.610781 3.32985c-.121824.53467-2.585371-1.78675-4.656375-3.776537-2.071003-1.989788-4.196151-2.233436-2.179291 1.698764 1.285917 2.49062 5.94906 5.218118 5.901684 5.41439a29.535515 29.535515 0 0 1-1.475421 4.223223c-.642959 1.292686-9.603773 8.446447-9.590237 8.439684.013536-.006773 1.752909-5.66481 5.563285-8.439684 2.172524-1.597245 1.597245-1.407741 3.032058-2.307883 0-.83923-.243648-2.030396-1.292686-2.409403-1.306221-.460223-5.549748.311327-5.549748.311327.399311-2.125148-.582047-7.688433-.561743-12.723815-1.597245.155664-5.718949 2.199596-6.395748 3.607337-.494063 8.344928-1.874732 4.866183-3.566728 10.869387-1.840893-2.517691 1.001662-4.656375-.798623-7.011634-2.490619-3.241866-1.861196-4.392424-2.233435-8.378768.582046-.324863 2.355259-3.052362.047376-8.94051-.189504-4.622535.751246-7.871168.812158-10.774634.060912-2.903467-.744479-5.454997-4.433031-8.690095.615887-.196272.473759-5.028614.473759-5.035382 5.414389 2.903466 3.844216-3.16065 5.962596-4.385655 3.383993-1.955948 2.75457-3.979576 1.245309-6.504035 9.617309 2.707194-.433151 9.319517 3.918665 9.47518 3.153881.094753 5.272261-.676798 6.646162-2.829017 1.461885-2.246972-.257183-3.627641 3.823913-7.268818.412847-.365471 1.488957-2.795178-1.746141-3.458441-.676798-.155664 0-2.92377 0-2.92377-2.592139 2.199596-3.383993 5.285797-7.566609 3.32985-2.131915-1.001663-3.519353 0-4.392423.406078-.247761-1.015343.349374-2.0454 1.353597-2.334955 4.554855-1.529565 5.806933-3.383993 5.41439-4.345047a6.94394 6.94394 0 0 1-.676799-2.497387c.027072-.954286 2.280811-4.784967 5.597125-6.08442ZM96.863422 2.116578c.244416 1.168255-.455955 2.326674-1.604012 2.65305 2.029157.634092 4.214721-.328597 5.116597-2.253739 1.170862 4.886486-3.749464 5.157206-5.27903 5.454997 0 0 2.49062.717407 2.619212 2.341724.324863 4.13524 2.977914 3.783304 3.553193 3.451673-.094752.50083-.913679 2.998218-3.89836.744478-.5076.500831.812158 1.272382 1.07611 3.323082.338398 2.592138.250415 4.994774 3.241865 6.578482-1.827357 1.461886-3.993112-2.341723-4.175848-1.888268-.182736.453455 2.544763 1.901805-.494063 9.07587-1.387437-.798622-.609119-.642959-2.2199-2.558299-1.231773-1.028734-2.233435-1.150558-1.21147.548207 1.793517 2.246972 2.707195 7.26205 2.11838 8.642719-1.47542-.676799-1.096413-1.827357-2.835786-3.438137-.162431.676798.040608 4.23676 1.840893 5.861076 3.113273 2.815482 4.70375 6.091188 4.73759 6.734147.250416 2.55153-.460223 4.947398-.764782 8.243407-1.047008-.178002-1.93311-.873134-2.35526-1.84766-.406079-.832463-1.082877-2.172524-1.231773-2.071004a2.75457 2.75457 0 0 0-.412847 1.522797 9.197695 9.197695 0 0 0 .798622 2.612443c.494063 1.07611 1.928876 2.334955 2.984682 3.323081 1.353598 3.986344.744479 5.515909.379007 5.658037-.36547.142127-1.150557-2.030396-1.928876-2.950842-.297791-.351936-2.537995.087983-2.382331.351935.277488.460223.961054 1.170862 1.353597 1.739372a10.375323 10.375323 0 0 1 1.48219 2.571835 20.980763 20.980763 0 0 1 .785086 3.871288c.250415 4.257064-1.21147 6.517572-1.91534 8.602111-.825695-3.221561-1.24531-5.637732-2.280812-9.285677a14.28722 14.28722 0 0 0-3.383993 3.29601c-.487295.730942-.879838 1.265613-1.461885 2.206363a5.644505 5.644505 0 0 1-.676799 1.028734 26.544028 26.544028 0 0 0-.162431-3.241866c-.629423-4.778198-2.510923-11.410825-4.013416-13.251717A131.481653 131.481653 0 0 0 79.293729 72.8285c-1.055805 3.62764-1.928876 7.79672-1.428045 11.735688a18.639037 18.639037 0 0 0 1.428045 5.204582 21.400371 21.400371 0 0 1-2.998217-5.84754c-2.030397-6.849203-.845999-14.720371 2.429707-16.073968.36547-.94075-.351936-4.20292-1.21147-3.647945-.937933.745358-1.619435 1.765244-1.94918 2.917002-3.133578-2.707194-1.637853-3.979576-.879838-4.933862.758014-.954286 1.64462-1.509261 2.030396-2.158988 2.030396-3.49228-.453455-4.1014-.622655-3.986344-.382294 1.194619-1.26366 2.164863-2.416171 2.659819-2.314652-3.986344-2.030396-8.615647 1.98302-13.258486.676798-.825694 2.138683-1.516029 2.917002-2.341723.13536-1.306221-1.272382-1.820588-2.42294-.97459-.548169.506695-1.246884.820404-1.989787.893374-.426383-3.952504.365471-10.828778 7.674896-11.072426-1.394205-.412847-2.138683-.676798-2.477083-1.834124 2.206364-.324863 9.136782-.852766 7.99976-6.328067-.676798.676798-.87307 1.637853-2.707194 2.707194-1.21147.73771-2.531227.80539-3.221562-.263951 3.214794-1.069342 2.15222-4.988006-2.030396-3.83068-1.285917.351935-3.167417-.994895-3.26217-2.49062.933983.94075 2.82902.243648 3.925433-.46699 4.73759-3.072666 7.607217 1.353597 8.243408 2.334955.189503 0 2.11838-4.446567-4.588695-5.644501-.561743-1.563405-2.091308-4.324743-6.646163-3.979576-1.502493-5.299333-6.037044-2.707195-5.888148-.291023-4.784967-3.519353-.115056-7.992992 1.854428-8.683327 0 0 .06768 2.15222 1.028734 3.208026.73187.591694 1.718518.760834 2.605675.446687.419615-.148896.46699-1.096414.115055-1.786749-.351935-.690334-1.245309-1.691996-1.272381-2.280811l.23688-.13536c2.179291-1.24531 2.125147 1.590477 3.201257.534671C79.490001 1.297652 81.621917.26215 83.374825.05911c4.933863-.676798 8.764543 4.73759 13.488597 2.030396M64.113136 15.111112c-1.455117-2.483851 1.732604-4.852646 1.732604-4.852646-.094751 6.977794 8.798383 2.192827 13.468293 4.405959 1.067333.533889 1.906075 1.435115 2.362028 2.537995-5.001542-3.46521-14.212772 3.573497-17.562925-2.091308M39.971728 74.987488c-.392543 2.483851-.189504 3.383994.5076 5.793397 1.130253 3.668249.676798 2.565067-.866303 1.306221-1.218238-1.353597-1.942412-1.739372-2.531227-3.32985-.142128-1.130253.277487-1.34006 2.88993-3.769768Zm-17.887788-50.0831-.13536-.13536c-.162432 0-11.580025 7.207906-18.997738 3.749465 5.522677-3.05913 22.733667-13.969124 27.96532-17.427565 1.238542.27072 3.282474.622655 4.784967.216576 1.502493-.40608 2.45001-1.570173 2.842554-1.84766-1.996556.121823-10.063996.615886-6.713843-5.326406 1.292686 5.326405 10.5919.426383 13.928516-.345167 9.305982-2.158988 9.238302 7.79672 8.446448 11.911656-.297792 1.529565 2.849322 2.61921 4.39919 2.395867-2.666586 6.58525-6.24685.609119-7.992991 2.49062-.80539.866301-2.429707 2.28081-3.02529 4.73759-.676799 2.910234-.311327 4.020184-.311327 4.020184a12.920088 12.920088 0 0 0 .97459 3.600568c1.631084 4.16908 7.810256-.595582 10.828778.60912 1.516029.60235 2.524459 1.969483 4.006648 1.698764.433151-.358703.23688-2.030396.175968-2.639515-.155664-1.41451-2.768107-1.583709-3.986345-3.512585-1.062573-1.67846 1.218238-6.767986 2.443244-8.229871.316867 1.815933 1.15655 3.500004 2.41617 4.845878 1.98302 2.030396 3.052363 2.307883 5.590358 3.99988 1.164093.77155 2.38233 1.793516 2.61921 3.607337.73771 2.490619-3.444905 7.512465-.676798 11.55972-2.071004 2.030396-4.852647 10.828779-.527903 15.315954-.73771 2.030396-1.698765 6.700306 2.15222 9.427805-1.292686 2.761339-.751247 2.524459.338399 5.955828-2.395867 0-2.666587-10.003084-15.336257-9.766204-.3384 0-.345168 1.495725 0 2.25374 1.30622 2.781642 3.776536 2.152219 3.282473 9.27214-.1692 2.436476-1.353597.27072-2.104844-.39931-1.739372-1.536333-3.079434-1.746141-3.837448-6.767987-5.834004 4.581927-5.41439 9.102942-5.31287 11.816904 0 0-.87307-2.389099-2.34849-5.996436 0 0 6.21301-7.607216 7.350032-9.217997 8.798383-12.419255 2.443244-8.392303-2.294347-2.15222-3.133578 4.13524-6.564947 7.8644-6.564947 7.8644a8.974351 8.974351 0 0 0-1.225005-2.565067 86.975392 86.975392 0 0 0 6.206243-7.76288c8.209568-12.798262.3384-6.091188-4.216455-.196272-2.071004 2.680123-3.905129 5.103062-3.905129 5.103062a17.332812 17.332812 0 0 0-2.592138-1.84766c-.1692 3.004986-1.123486 2.233435-.920447 5.299333a61.385633 61.385633 0 0 1-7.221441 7.681665s-.588815-5.41439-.433151-5.61066c1.17763-1.434814 5.671572-6.45666 6.727378-7.857633 10.68665-14.165396 4.345048-10.828778-.730942-4.77143-3.383993 4.060791-6.713843 9.157085-6.767987 9.062333-.330384-.811986-.884215-1.513662-1.597244-2.023628 0 0 4.663142-7.133457 6.179171-9.705292 6.138564-10.45654.250416-7.106386-3.539657-1.252078-2.707194 4.196152-4.920326 9.31275-5.001542 9.265374a4.50748 4.50748 0 0 0-.913678-.351936s1.24531-5.306101 1.854428-8.541198c.900143-4.534551-1.935644-3.580265-3.742696 1.035501-.744479 1.908573-.927214 4.568391-1.225006 7.519233-.866302.13536-2.829018 1.536333-2.829018 1.536333.514367 2.707195 1.07611 1.24531 1.895036 3.289242 1.272382 3.153881-1.800284 7.607217 1.028734 11.349913 1.089646 1.441581 1.74614 1.597245 1.529565 2.544763-1.8132-.059866-3.532189.80728-4.561623 2.301115-2.138684-9.725596-2.707194-15.850624-1.549869-25.467933.284256-2.368795 1.461885-5.326405 1.901804-7.613985.385776-2.030395.087984-3.519353-.230111-3.580264-.20304-.040608-1.61078 1.739372-3.167418 5.414389-3.383993 8.06744-8.419375 22.273443-10.097836 25.792796C3.02529 79.088888 9.98278 56.389062 18.82177 45.465531c.358704-1.50926-.676798-1.8815-1.969484-.676798-1.7123 1.617548-4.060792 5.414389-5.935524 6.95749C7.918544 54.297753 4.148776 57.63437 0 56.483813c5.306101-5.617428 17.468173-16.128111 18.82177-18.75409.426384-.845999-.642958-.852766-2.659818.263951-3.356922 1.935645-9.387198 5.54975-15.60021 3.404297C7.011635 37.932762 22.056869 30.24433 22.08394 24.884085m-.10152 64.295871c1.664925 1.130254 3.62764 1.631085 5.41439 2.395867 2.233435 5.834005.054143 11.566489-1.191166 9.184158-2.192828-4.162312-3.05913-7.62752-4.229992-11.580025" fill="#800000" fill-rule="nonzero"></path>
</svg>